<svg xmlns="http://www.w3.org/2000/svg" viewBox="0 0 199.6148 177.1724" aria-hidden="true">
  <!-- CC0 https://www.svgrepo.com/svg/259742/snow -->
  <g>
    <circle fill="#FFFFFF" cx="51.6147" cy="41.1683" r="4"/>
    <circle fill="#FFFFFF" cx="79.6147" cy="141.1683" r="4"/>
    <circle fill="#FFFFFF" cx="163.6147" cy="81.1683" r="4"/>
    <path fill="#1C71DA" d="M114.3237,130.2269c-1.6289-1.5039-4.1562-1.3945-5.6523,0.2344l-6.2886,6.8333   c-0.2122-0.0347-0.4036-0.1262-0.6255-0.1262H90.8777c-0.1392-0.3904-0.2878-0.7708-0.4653-1.1414l7.6868-7.6868   c0.2466-0.2466,0.3857-0.5479,0.5544-0.835l8.7542,0.3662c0.0586,0.0039,0.1152,0.0039,0.1699,0.0039   c2.1328,0,3.9043-1.6836,3.9941-3.832c0.0918-2.207-1.6211-4.0703-3.8281-4.1641l-6.877-0.2891l-0.2852-6.8711   c-0.0898-2.207-1.9043-4.0039-4.1621-3.832c-2.207,0.0898-3.9219,1.9531-3.8301,4.1602l0.385,9.2837   c-0.1743,0.1252-0.3745,0.196-0.5315,0.353l-7.6868,7.6868c-0.3706-0.1775-0.751-0.3262-1.1414-0.4653v-10.8777   c0-0.3484-0.1147-0.6597-0.1982-0.9817l6.4502-5.9363c1.625-1.4961,1.7305-4.0234,0.2344-5.6484   c-1.4941-1.6289-4.0234-1.7383-5.6523-0.2344l-5.0625,4.6562l-5.0625-4.6562c-1.6289-1.5039-4.1582-1.3945-5.6523,0.2344   c-1.4961,1.625-1.3906,4.1523,0.2344,5.6484l6.8354,6.291c-0.0349,0.2124-0.1265,0.4045-0.1265,0.627v10.8777   c-0.3904,0.1392-0.7708,0.2878-1.1414,0.4653l-7.6868-7.6868c-0.2461-0.2461-0.5474-0.3853-0.834-0.554l0.3633-8.7585   c0.0918-2.207-1.623-4.0703-3.8301-4.1602c-2.3223-0.1797-4.0723,1.625-4.1621,3.832l-0.2852,6.8711l-6.877,0.2891   c-2.207,0.0938-3.9199,1.957-3.8281,4.1641c0.0898,2.1484,1.8613,3.832,3.9941,3.832c0.0547,0,0.1113,0,0.1699-0.0039   l9.2791-0.3882c0.1255,0.1748,0.1965,0.3755,0.3538,0.5327l7.6868,7.6868c-0.1775,0.3706-0.3262,0.751-0.4653,1.1414H57.4721   c-0.3486,0-0.6604,0.1145-0.9827,0.1982l-5.9314-6.4482c-1.498-1.629-4.0254-1.7344-5.6504-0.2383   c-1.627,1.4961-1.7324,4.0273-0.2363,5.6523l4.6582,5.0664l-4.6582,5.0625c-1.4961,1.625-1.3906,4.1562,0.2344,5.6484   c0.7695,0.7109,1.7402,1.0586,2.707,1.0586c1.0801,0,2.1562-0.4336,2.9453-1.293l6.2888-6.8333   c0.2119,0.0347,0.4033,0.1262,0.6252,0.1262H68.352c0.1392,0.3904,0.2876,0.7708,0.4651,1.1414l-7.6868,7.6868   c-0.2466,0.2466-0.3857,0.5479-0.5544,0.835l-8.7542-0.3662c-2.3613-0.1992-4.0723,1.6211-4.1641,3.8281   s1.6211,4.0703,3.8281,4.1641l6.877,0.2891l0.2852,6.8711c0.0879,2.1523,1.8613,3.8359,3.9941,3.8359   c0.0547,0,0.1113,0,0.168-0.0039c2.207-0.0898,3.9219-1.9531,3.8301-4.1602l-0.385-9.2837c0.1743-0.1252,0.3745-0.196,0.5315-0.353   l7.6868-7.6868c0.3706,0.1775,0.751,0.3259,1.1414,0.4651v10.8779c0,0.3484,0.1147,0.6597,0.1982,0.9817l-6.4502,5.9363   c-1.625,1.4961-1.7305,4.0234-0.2344,5.6484c1.4961,1.6289,4.0215,1.7422,5.6523,0.2344l5.0625-4.6562l5.0625,4.6562   c0.7695,0.7109,1.7402,1.0586,2.707,1.0586c1.0801,0,2.1562-0.4336,2.9453-1.293c1.4961-1.625,1.3906-4.1523-0.2344-5.6484   l-6.8354-6.291c0.0349-0.2126,0.1265-0.4045,0.1265-0.627v-10.8777c0.3904-0.1392,0.7708-0.2878,1.1414-0.4653l7.6868,7.6868   c0.2461,0.2461,0.5474,0.3853,0.834,0.554l-0.3633,8.7585c-0.0918,2.207,1.623,4.0703,3.8301,4.1602   c0.0566,0.0039,0.1133,0.0039,0.168,0.0039c2.1328,0,3.9062-1.6836,3.9941-3.8359l0.2852-6.8711l6.877-0.2891   c2.207-0.0938,3.9199-1.957,3.8281-4.1641c-0.0918-2.2031-1.8125-4.0195-4.1641-3.8281l-9.2791,0.3882   c-0.1255-0.1748-0.1965-0.3755-0.3538-0.5327l-7.6868-7.6868c0.1775-0.3706,0.3262-0.751,0.4653-1.1414h10.8796   c0.3486,0,0.6604-0.1145,0.9827-0.1982l5.9314,6.4483c0.7891,0.8593,1.8652,1.2929,2.9453,1.2929   c0.9668,0,1.9375-0.3477,2.7051-1.0547c1.627-1.4961,1.7324-4.0273,0.2363-5.6523l-4.6582-5.0664l4.6582-5.0625   C116.0542,134.2504,115.9487,131.7191,114.3237,130.2269z M75.6147,141.1683c0-2.207,1.7949-4,4-4s4,1.793,4,4s-1.7949,4-4,4   S75.6147,143.3754,75.6147,141.1683z"/>
    <path fill="#1C71DA" d="M193.8999,80.9379l4.6582-5.0625c1.4961-1.625,1.3906-4.1562-0.2344-5.6484   c-1.6289-1.5039-4.1562-1.3945-5.6523,0.2344l-6.2886,6.8333c-0.2122-0.0347-0.4036-0.1262-0.6255-0.1262h-10.8796   c-0.1392-0.3904-0.2878-0.7708-0.4653-1.1414l7.6868-7.6868c0.2466-0.2466,0.3857-0.5479,0.5544-0.835l8.7542,0.3662   c0.0586,0.0039,0.1152,0.0039,0.1699,0.0039c2.1328,0,3.9043-1.6836,3.9941-3.832c0.0918-2.207-1.6211-4.0703-3.8281-4.1641   l-6.877-0.2891l-0.2852-6.8711c-0.0918-2.207-1.9199-4.0039-4.1621-3.832c-2.207,0.0898-3.9219,1.9531-3.8301,4.1602l0.385,9.2837   c-0.1743,0.1252-0.3745,0.196-0.5315,0.353l-7.6868,7.6868c-0.3706-0.1775-0.751-0.3262-1.1414-0.4653V59.0277   c0-0.3484-0.1147-0.6597-0.1982-0.9817l6.4502-5.9363c1.625-1.4961,1.7305-4.0234,0.2344-5.6484s-4.0234-1.7383-5.6523-0.2344   l-5.0625,4.6562l-5.0625-4.6562c-1.627-1.5039-4.1582-1.3906-5.6523,0.2344c-1.4961,1.625-1.3906,4.1523,0.2344,5.6484   l6.8354,6.291c-0.0349,0.2124-0.1265,0.4045-0.1265,0.627v10.8777c-0.3904,0.1392-0.7708,0.2878-1.1414,0.4653l-7.6868-7.6868   c-0.2461-0.2461-0.5474-0.3853-0.834-0.554l0.3633-8.7585c0.0918-2.207-1.623-4.0703-3.8301-4.1602   c-2.2598-0.1797-4.0742,1.625-4.1621,3.832l-0.2852,6.8711l-6.877,0.2891c-2.207,0.0938-3.9199,1.957-3.8281,4.1641   c0.0898,2.1484,1.8613,3.832,3.9941,3.832c0.0547,0,0.1113,0,0.1699-0.0039l9.2791-0.3882   c0.1255,0.1748,0.1965,0.3755,0.3538,0.5327l7.6868,7.6868c-0.1775,0.3706-0.3262,0.751-0.4653,1.1414h-10.8796   c-0.3486,0-0.6604,0.1145-0.9827,0.1982l-5.9314-6.4482c-1.498-1.629-4.0254-1.7383-5.6504-0.2383   c-1.627,1.4961-1.7324,4.0273-0.2363,5.6523l4.6582,5.0664l-4.6582,5.0625c-1.4961,1.625-1.3906,4.1562,0.2344,5.6484   c0.7695,0.7109,1.7402,1.0586,2.707,1.0586c1.0801,0,2.1562-0.4336,2.9453-1.293l6.2888-6.8333   c0.2119,0.0347,0.4033,0.1262,0.6252,0.1262h10.8799c0.1392,0.3904,0.2876,0.7708,0.4651,1.1414l-7.6868,7.6868   c-0.2466,0.2466-0.3857,0.5479-0.5544,0.835l-8.7542-0.3662c-2.377-0.1992-4.0723,1.6211-4.1641,3.8281   s1.6211,4.0703,3.8281,4.1641l6.877,0.2891l0.2852,6.8711c0.0879,2.1523,1.8613,3.8359,3.9941,3.8359   c0.0547,0,0.1113,0,0.168-0.0039c2.207-0.0898,3.9219-1.9531,3.8301-4.1602l-0.385-9.2837c0.1743-0.1252,0.3745-0.196,0.5315-0.353   l7.6868-7.6868c0.3706,0.1775,0.751,0.3259,1.1414,0.4651v10.8779c0,0.3484,0.1147,0.6597,0.1982,0.9817l-6.4502,5.9363   c-1.625,1.4961-1.7305,4.0234-0.2344,5.6484c1.4961,1.6289,4.0234,1.7422,5.6523,0.2344l5.0625-4.6562l5.0625,4.6562   c0.7695,0.7109,1.7402,1.0586,2.707,1.0586c1.0801,0,2.1562-0.4336,2.9453-1.293c1.4961-1.625,1.3906-4.1523-0.2344-5.6484   l-6.8354-6.291c0.0349-0.2126,0.1265-0.4045,0.1265-0.627V92.4313c0.3904-0.1392,0.7708-0.2878,1.1414-0.4653l7.6868,7.6868   c0.2461,0.2461,0.5474,0.3853,0.834,0.554l-0.3633,8.7585c-0.0918,2.207,1.623,4.0703,3.8301,4.1602   c0.0566,0.0039,0.1133,0.0039,0.168,0.0039c2.1328,0,3.9062-1.6836,3.9941-3.8359l0.2852-6.8711l6.877-0.2891   c2.207-0.0938,3.9199-1.957,3.8281-4.1641c-0.0918-2.2031-1.8281-4.0195-4.1641-3.8281l-9.2791,0.3882   c-0.1255-0.1748-0.1965-0.3755-0.3538-0.5327l-7.6868-7.6868c0.1775-0.3706,0.3262-0.751,0.4653-1.1414h10.8796   c0.3486,0,0.6604-0.1145,0.9827-0.1982l5.9314,6.4483c0.7891,0.8593,1.8652,1.2929,2.9453,1.2929   c0.9668,0,1.9375-0.3477,2.7051-1.0547c1.627-1.4961,1.7324-4.0273,0.2363-5.6523L193.8999,80.9379z M159.6147,81.1683   c0-2.207,1.7949-4,4-4s4,1.793,4,4s-1.7949,4-4,4S159.6147,83.3754,159.6147,81.1683z"/>
    <path fill="#1C71DA" d="M46.7807,76.1097l5.0625-4.6562l5.0625,4.6562c0.7695,0.7109,1.7402,1.0586,2.707,1.0586   c1.0801,0,2.1562-0.4336,2.9453-1.293c1.4961-1.625,1.3906-4.1523-0.2344-5.6484l-6.8354-6.291   c0.0349-0.2126,0.1265-0.4045,0.1265-0.627V52.4313c0.3904-0.1392,0.7708-0.2878,1.1414-0.4653l7.6868,7.6868   c0.2461,0.2461,0.5474,0.3853,0.834,0.554l-0.3633,8.7585c-0.0918,2.207,1.623,4.0703,3.8301,4.1602   c0.0566,0.0039,0.1133,0.0039,0.168,0.0039c2.1328,0,3.9062-1.6836,3.9941-3.8359l0.2852-6.8711l6.877-0.2891   c2.207-0.0938,3.9199-1.957,3.8281-4.1641c-0.0938-2.2031-1.8594-4.0195-4.1641-3.8281l-9.2791,0.3882   c-0.1255-0.1748-0.1965-0.3755-0.3538-0.5327l-7.6868-7.6868c0.1775-0.3706,0.3262-0.751,0.4653-1.1414h10.8796   c0.3486,0,0.6604-0.1145,0.9827-0.1982l5.9314,6.4483c0.7891,0.8593,1.8652,1.2929,2.9453,1.2929   c0.9668,0,1.9375-0.3477,2.7051-1.0547c1.627-1.4961,1.7324-4.0273,0.2363-5.6523l-4.6582-5.0664l4.6582-5.0625   c1.4961-1.625,1.3906-4.1563-0.2344-5.6484c-1.627-1.5078-4.1582-1.3945-5.6523,0.2344l-6.2886,6.8333   c-0.2122-0.0347-0.4036-0.1262-0.6255-0.1262H62.8777c-0.1392-0.3904-0.2878-0.7708-0.4653-1.1414l7.6868-7.6868   c0.2466-0.2466,0.3857-0.5479,0.5544-0.835l8.7542,0.3662c0.0586,0.0039,0.1152,0.0039,0.1699,0.0039   c2.1328,0,3.9043-1.6836,3.9941-3.832c0.0918-2.207-1.6211-4.0703-3.8281-4.1641l-6.877-0.2891l-0.2852-6.8711   c-0.0918-2.207-1.9512-4.0039-4.1621-3.832c-2.207,0.0898-3.9219,1.9531-3.8301,4.1602l0.385,9.2837   c-0.1743,0.1252-0.3745,0.196-0.5315,0.353l-7.6868,7.6868c-0.3706-0.1775-0.751-0.3262-1.1414-0.4653V19.0277   c0-0.3484-0.1147-0.6597-0.1982-0.9817l6.4502-5.9363c1.625-1.4961,1.7305-4.0234,0.2344-5.6484   c-1.4961-1.6289-4.0234-1.7383-5.6523-0.2344l-5.0625,4.6563l-5.0625-4.6563c-1.6309-1.5039-4.1543-1.3945-5.6523,0.2344   c-1.4961,1.625-1.3906,4.1523,0.2344,5.6484l6.8354,6.291c-0.0349,0.2124-0.1265,0.4045-0.1265,0.627v10.8777   c-0.3904,0.1392-0.7708,0.2878-1.1414,0.4653l-7.6868-7.6868c-0.2461-0.2461-0.5474-0.3853-0.834-0.554l0.3633-8.7585   c0.0918-2.207-1.623-4.0703-3.8301-4.1602c-2.291-0.1797-4.0723,1.625-4.1621,3.832l-0.2852,6.8711l-6.877,0.2891   c-2.207,0.0938-3.9199,1.957-3.8281,4.1641c0.0898,2.1484,1.8613,3.832,3.9941,3.832c0.0547,0,0.1113,0,0.1699-0.0039   l9.2791-0.3882c0.1255,0.1748,0.1965,0.3755,0.3538,0.5327l7.6868,7.6868c-0.1775,0.3706-0.3262,0.751-0.4653,1.1414H29.4721   c-0.3486,0-0.6604,0.1145-0.9827,0.1982l-5.9314-6.4482c-1.4941-1.629-4.0234-1.7344-5.6504-0.2383   c-1.627,1.4961-1.7324,4.0273-0.2363,5.6523l4.6582,5.0664l-4.6582,5.0625c-1.4961,1.625-1.3906,4.1562,0.2344,5.6484   c0.7695,0.7109,1.7402,1.0586,2.707,1.0586c1.0801,0,2.1562-0.4336,2.9453-1.293l6.2888-6.8333   c0.2119,0.0347,0.4033,0.1262,0.6252,0.1262H40.352c0.1392,0.3904,0.2876,0.7708,0.4651,1.1414l-7.6868,7.6868   c-0.2466,0.2466-0.3857,0.5479-0.5544,0.835l-8.7542-0.3662c-0.0586-0.0039-0.1152-0.0039-0.1699-0.0039   c-2.1328,0-3.9043,1.6836-3.9941,3.832c-0.0918,2.207,1.6211,4.0703,3.8281,4.1641l6.877,0.2891l0.2852,6.8711   c0.0879,2.1523,1.8613,3.8359,3.9941,3.8359c0.0547,0,0.1113,0,0.168-0.0039c2.207-0.0898,3.9219-1.9531,3.8301-4.1602   l-0.385-9.2837c0.1743-0.1252,0.3745-0.196,0.5315-0.353l7.6868-7.6868c0.3706,0.1775,0.751,0.3259,1.1414,0.4651V63.309   c0,0.3484,0.1147,0.6597,0.1982,0.9817l-6.4502,5.9363c-1.625,1.4961-1.7305,4.0234-0.2344,5.6484   C42.6245,77.5043,45.1518,77.6136,46.7807,76.1097z M47.6147,41.1683c0-2.207,1.7949-4,4-4s4,1.793,4,4s-1.7949,4-4,4   S47.6147,43.3754,47.6147,41.1683z"/>
  </g>
  <path fill="#FF5D5D" d="M4.0001,108c-1.0239,0-2.0474-0.3906-2.8286-1.1719c-1.562-1.5615-1.562-4.0947,0-5.6562l14.1421-14.1416  c1.563-1.5625,4.0952-1.5615,5.6572,0s1.562,4.0947,0,5.6562L6.8287,106.8281C6.0475,107.6094,5.0236,108,4.0001,108z"/>
  <path fill="#FF5D5D" d="M18.1422,108.001c-1.0239,0-2.0474-0.3906-2.8286-1.1719L1.1715,92.6865  c-1.562-1.5615-1.562-4.0947,0-5.6562c1.563-1.5625,4.0952-1.5615,5.6572,0l14.1421,14.1426c1.562,1.5615,1.562,4.0947,0,5.6562  C20.1896,107.6104,19.1656,108.001,18.1422,108.001z"/>
  <path fill="#00D40B" d="M106.0001,28c-7.7197,0-14-6.2803-14-14s6.2803-14,14-14s14,6.2803,14,14S113.7198,28,106.0001,28z   M106.0001,8c-3.3086,0-6,2.6914-6,6s2.6914,6,6,6s6-2.6914,6-6S109.3087,8,106.0001,8z"/>
  <path fill="#FFC504" d="M183.3136,154.6279L183.3136,154.6279c-1.061,0-2.0786-0.4219-2.8286-1.1719l-11.3135-11.3145  c-1.562-1.5615-1.562-4.0947,0-5.6562l11.3135-11.3135c1.5625-1.5625,4.0952-1.5625,5.6567,0l11.314,11.3135  c0.7505,0.75,1.1719,1.7676,1.1719,2.8281s-0.4214,2.0781-1.1714,2.8281l-11.314,11.3145  C185.3922,154.2061,184.3746,154.6279,183.3136,154.6279z M177.6569,139.3135l5.6567,5.6572l5.6572-5.6572l-5.6572-5.6562  L177.6569,139.3135z"/>
</svg>
